<svg width="216" height="63" viewBox="0 0 216 63" fill="none" xmlns="http://www.w3.org/2000/svg">
<rect y="10" width="24" height="40" rx="4" fill="#5AA6E4"/>
<rect x="32" y="2" width="24" height="48" rx="4" fill="#61C48B"/>
<rect x="64" y="17" width="24" height="32" rx="4" fill="#EF9952"/>
<path d="M107.256 26L101.592 18.56V26H97.488V9.152H101.592V16.544L107.208 9.152H112.032L105.504 17.408L112.272 26H107.256ZM113.406 19.28C113.406 17.904 113.662 16.696 114.174 15.656C114.702 14.616 115.414 13.816 116.31 13.256C117.206 12.696 118.206 12.416 119.31 12.416C120.254 12.416 121.078 12.608 121.782 12.992C122.502 13.376 123.054 13.88 123.438 14.504V12.608H127.542V26H123.438V24.104C123.038 24.728 122.478 25.232 121.758 25.616C121.054 26 120.23 26.192 119.286 26.192C118.198 26.192 117.206 25.912 116.31 25.352C115.414 24.776 114.702 23.968 114.174 22.928C113.662 21.872 113.406 20.656 113.406 19.28ZM123.438 19.304C123.438 18.28 123.15 17.472 122.574 16.88C122.014 16.288 121.326 15.992 120.51 15.992C119.694 15.992 118.998 16.288 118.422 16.88C117.862 17.456 117.582 18.256 117.582 19.28C117.582 20.304 117.862 21.12 118.422 21.728C118.998 22.32 119.694 22.616 120.51 22.616C121.326 22.616 122.014 22.32 122.574 21.728C123.15 21.136 123.438 20.328 123.438 19.304ZM138.671 12.464C140.239 12.464 141.487 12.976 142.415 14C143.359 15.008 143.831 16.4 143.831 18.176V26H139.751V18.728C139.751 17.832 139.519 17.136 139.055 16.64C138.591 16.144 137.967 15.896 137.183 15.896C136.399 15.896 135.775 16.144 135.311 16.64C134.847 17.136 134.615 17.832 134.615 18.728V26H130.511V12.608H134.615V14.384C135.031 13.792 135.591 13.328 136.295 12.992C136.999 12.64 137.791 12.464 138.671 12.464ZM150.787 14.504C151.171 13.88 151.723 13.376 152.443 12.992C153.163 12.608 153.987 12.416 154.915 12.416C156.019 12.416 157.019 12.696 157.915 13.256C158.811 13.816 159.515 14.616 160.027 15.656C160.555 16.696 160.819 17.904 160.819 19.28C160.819 20.656 160.555 21.872 160.027 22.928C159.515 23.968 158.811 24.776 157.915 25.352C157.019 25.912 156.019 26.192 154.915 26.192C153.971 26.192 153.147 26.008 152.443 25.64C151.739 25.256 151.187 24.752 150.787 24.128V26H146.683V8.24H150.787V14.504ZM156.643 19.28C156.643 18.256 156.355 17.456 155.779 16.88C155.219 16.288 154.523 15.992 153.691 15.992C152.875 15.992 152.179 16.288 151.603 16.88C151.043 17.472 150.763 18.28 150.763 19.304C150.763 20.328 151.043 21.136 151.603 21.728C152.179 22.32 152.875 22.616 153.691 22.616C154.507 22.616 155.203 22.32 155.779 21.728C156.355 21.12 156.643 20.304 156.643 19.28ZM162.156 19.28C162.156 17.904 162.412 16.696 162.924 15.656C163.452 14.616 164.164 13.816 165.06 13.256C165.956 12.696 166.956 12.416 168.06 12.416C169.004 12.416 169.828 12.608 170.532 12.992C171.252 13.376 171.804 13.88 172.188 14.504V12.608H176.292V26H172.188V24.104C171.788 24.728 171.228 25.232 170.508 25.616C169.804 26 168.98 26.192 168.036 26.192C166.948 26.192 165.956 25.912 165.06 25.352C164.164 24.776 163.452 23.968 162.924 22.928C162.412 21.872 162.156 20.656 162.156 19.28ZM172.188 19.304C172.188 18.28 171.9 17.472 171.324 16.88C170.764 16.288 170.076 15.992 169.26 15.992C168.444 15.992 167.748 16.288 167.172 16.88C166.612 17.456 166.332 18.256 166.332 19.28C166.332 20.304 166.612 21.12 167.172 21.728C167.748 22.32 168.444 22.616 169.26 22.616C170.076 22.616 170.764 22.32 171.324 21.728C171.9 21.136 172.188 20.328 172.188 19.304ZM187.421 12.464C188.989 12.464 190.237 12.976 191.165 14C192.109 15.008 192.581 16.4 192.581 18.176V26H188.501V18.728C188.501 17.832 188.269 17.136 187.805 16.64C187.341 16.144 186.717 15.896 185.933 15.896C185.149 15.896 184.525 16.144 184.061 16.64C183.597 17.136 183.365 17.832 183.365 18.728V26H179.261V12.608H183.365V14.384C183.781 13.792 184.341 13.328 185.045 12.992C185.749 12.64 186.541 12.464 187.421 12.464Z" fill="white"/>
<path d="M103.536 37.848V39.032H98.688V42.792H102.624V43.976H98.688V49H97.232V37.848H103.536ZM106.047 38.808C105.769 38.808 105.535 38.712 105.343 38.52C105.151 38.328 105.055 38.0933 105.055 37.816C105.055 37.5387 105.151 37.304 105.343 37.112C105.535 36.92 105.769 36.824 106.047 36.824C106.313 36.824 106.537 36.92 106.719 37.112C106.911 37.304 107.007 37.5387 107.007 37.816C107.007 38.0933 106.911 38.328 106.719 38.52C106.537 38.712 106.313 38.808 106.047 38.808ZM106.751 40.232V49H105.295V40.232H106.751ZM117.232 44.28C117.232 44.5573 117.216 44.8507 117.184 45.16H110.176C110.229 46.024 110.523 46.7013 111.056 47.192C111.6 47.672 112.256 47.912 113.024 47.912C113.653 47.912 114.176 47.768 114.592 47.48C115.019 47.1813 115.317 46.7867 115.488 46.296H117.056C116.821 47.1387 116.352 47.8267 115.648 48.36C114.944 48.8827 114.069 49.144 113.024 49.144C112.192 49.144 111.445 48.9573 110.784 48.584C110.133 48.2107 109.621 47.6827 109.248 47C108.875 46.3067 108.688 45.5067 108.688 44.6C108.688 43.6933 108.869 42.8987 109.232 42.216C109.595 41.5333 110.101 41.0107 110.752 40.648C111.413 40.2747 112.171 40.088 113.024 40.088C113.856 40.088 114.592 40.2693 115.232 40.632C115.872 40.9947 116.363 41.496 116.704 42.136C117.056 42.7653 117.232 43.48 117.232 44.28ZM115.728 43.976C115.728 43.4213 115.605 42.9467 115.36 42.552C115.115 42.1467 114.779 41.8427 114.352 41.64C113.936 41.4267 113.472 41.32 112.96 41.32C112.224 41.32 111.595 41.5547 111.072 42.024C110.56 42.4933 110.267 43.144 110.192 43.976H115.728ZM120.61 37.16V49H119.154V37.16H120.61ZM122.547 44.584C122.547 43.688 122.729 42.904 123.091 42.232C123.454 41.5493 123.95 41.0213 124.579 40.648C125.219 40.2747 125.934 40.088 126.723 40.088C127.406 40.088 128.041 40.248 128.627 40.568C129.214 40.8773 129.662 41.288 129.971 41.8V37.16H131.443V49H129.971V47.352C129.683 47.8747 129.257 48.3067 128.691 48.648C128.126 48.9787 127.465 49.144 126.707 49.144C125.929 49.144 125.219 48.952 124.579 48.568C123.95 48.184 123.454 47.6453 123.091 46.952C122.729 46.2587 122.547 45.4693 122.547 44.584ZM129.971 44.6C129.971 43.9387 129.838 43.3627 129.571 42.872C129.305 42.3813 128.942 42.008 128.483 41.752C128.035 41.4853 127.539 41.352 126.995 41.352C126.451 41.352 125.955 41.48 125.507 41.736C125.059 41.992 124.702 42.3653 124.435 42.856C124.169 43.3467 124.035 43.9227 124.035 44.584C124.035 45.256 124.169 45.8427 124.435 46.344C124.702 46.8347 125.059 47.2133 125.507 47.48C125.955 47.736 126.451 47.864 126.995 47.864C127.539 47.864 128.035 47.736 128.483 47.48C128.942 47.2133 129.305 46.8347 129.571 46.344C129.838 45.8427 129.971 45.2613 129.971 44.6Z" fill="white"/>
</svg>